<svg xmlns="http://www.w3.org/2000/svg" fill="#0d5fb7" viewBox="0 0 431.76 87.53" xmlns:v="https://vecta.io/nano"><path d="M41.68 87.49c14.41.7 29.34-8 35.76-16.75 6.6-8.59 8-14.23 9.12-25.17.78-5.47-.52-11.2-2.17-16.41A42.61 42.61 0 0 0 72 11C62.86 3 48.36-1 35.43 1.3A46.39 46.39 0 0 0 13.64 12a55.07 55.07 0 0 0-8.85 11.61c-1.3 2.86-2.17 5.47-3.21 8.39-3.82 13-.35 27.86 6.51 37.41a44.58 44.58 0 0 0 28.56 17.48 17.63 17.63 0 0 0 5 .6zm70-.86V15.88H130v70.75h19.27V15.88h3c9.55-.08 15.45 5.56 15.53 13.37v57.38h18.06V27.78c-.7-17.45-15.63-27.43-29-27.52H92.63v86.37zm103.12.17V51.3l-.09-35.5H234c7.73 0 9.29.26 13.19 4 3.13 3.21 3.3 7.81 1.22 13-1.22 3.73-6.08 7.55-13.63 7.64h-15.16l33.51 46.18h21l-24.39-34.8a14.6 14.6 0 0 0 7.9-3.3 25.4 25.4 0 0 0 8.42-12.93c1.91-7.12 1-17.54-4.08-24.65C254 .35 240.11.26 236.81.26h-40.54V86.8zm150.34-.09h17.36l-.09-70.56H398c9.2-.18 16.31 5.38 16.31 13.1l.09 57.46h17.36V27.6c0-17.27-15.1-26.73-28.82-26.73H365.1v85.84zM40.21 69.27c4.6.52 7.2.52 10.06-.61 6.6-2.61 11.38-6.08 14.93-11.66a16.68 16.68 0 0 0 2.61-5.56 26.67 26.67 0 0 0-.44-15.88A33.43 33.43 0 0 0 65.81 32a26.69 26.69 0 0 0-14.67-12.21 27.46 27.46 0 0 0-24.91 5.12 24.94 24.94 0 0 0-8.42 22.48A36.72 36.72 0 0 0 21 56.68c5.66 9.37 12.7 11.72 19.21 12.59zM315.33 18C301.47 18 290 28.39 290 41.11s11.43 23.14 25.29 23.14 25.29-10.34 25.29-23.14S329.28 18 315.33 18zm-.05-18a43.49 43.49 0 1 0 43.4 43.49A43.58 43.58 0 0 0 315.28 0z"   fill-rule="evenodd"/></svg>